<svg xmlns="http://www.w3.org/2000/svg" viewBox="0 0 1636 1274" width="1636" height="1274"><defs></defs><g transform="matrix(1,0,0,1,11.259498303,-37.073324905)">
<g>
	<g>
		<g transform="matrix(2.199027929,0,0,2.199027929,-410.083327705,-986.512916571)">
			<path d="M637.473439679982,591.5162902727241 C659.8555127802872,591.5162902727241 678.036488900722,609.6972663931588 678.036488900722,632.079339493464 C678.036488900722,654.4614125937692 659.8555127802872,672.6423887142039 637.473439679982,672.6423887142039 C615.0913665796768,672.6423887142039 596.910390459242,654.4614125937692 596.910390459242,632.079339493464 C596.910390459242,609.6972663931588 615.0913665796768,591.5162902727241 637.473439679982,591.5162902727241 Z" fill="#000000"/>
		</g>
		<g transform="matrix(2.199027929,0,0,2.199027929,-410.083327705,-986.512916571)">
			<path d="M525.158235178363,732.8787193990382 C525.158235178363,732.8787193990382 445.9526397113733,910.831651399887 445.9526397113733,910.831651399887" transform="matrix(1.1836459,0,0,1.1836459,-1.582620544,-194.826502374)" fill="none" stroke="#000000" stroke-width="25" stroke-linecap="round"/>
		</g>
		<g transform="matrix(2.199027929,0,0,2.199027929,-410.083327705,-986.512916571)">
			<path d="M382.0761342885241,965.8364199584516 C382.0761342885241,965.8364199584516 445.95263971137337,910.8316513998872 445.95263971137337,910.8316513998872" transform="matrix(1.1836459,0,0,1.1836459,-1.582620544,-194.826502374)" fill="none" stroke="#000000" stroke-width="25" stroke-linecap="round"/>
		</g>
		<g transform="matrix(2.199027929,0,0,2.199027929,-410.083327705,-986.512916571)">
			<path d="M389.21733482619504,986.0990288460152 C389.21733482619504,986.0990288460152 382.0761342885241,965.8364199584516 382.0761342885241,965.8364199584516" transform="matrix(1.1836459,0,0,1.1836459,-1.582620544,-194.826502374)" fill="none" stroke="#000000" stroke-width="25" stroke-linecap="round"/>
		</g>
		<g transform="matrix(2.199027929,0,0,2.199027929,-410.083327705,-986.512916571)">
			<path d="M525.158235178363,732.8787193990382 C525.158235178363,732.8787193990382 538.99924256649,798.062018369425 538.99924256649,798.062018369425" transform="matrix(1.1836459,0,0,1.1836459,-1.582620544,-194.826502374)" fill="none" stroke="#000000" stroke-width="25" stroke-linecap="round"/>
		</g>
		<g transform="matrix(2.199027929,0,0,2.199027929,-410.083327705,-986.512916571)">
			<path d="M525.158235178363,732.8787193990382 C525.158235178363,732.8787193990382 460.0159855554987,740.4943036056226 460.0159855554987,740.4943036056226" transform="matrix(1.1836459,0,0,1.1836459,-1.582620544,-194.826502374)" fill="none" stroke="#000000" stroke-width="25" stroke-linecap="round"/>
		</g>
		<g transform="matrix(2.199027929,0,0,2.199027929,-410.083327705,-986.512916571)">
			<path d="M427.6834334278837,801.742146253869 C427.6834334278837,801.742146253869 460.0159855554987,740.4943036056225 460.0159855554987,740.4943036056225" transform="matrix(1.1836459,0,0,1.1836459,-1.582620544,-194.826502374)" fill="none" stroke="#000000" stroke-width="25" stroke-linecap="round"/>
		</g>
		<g transform="matrix(2.199027929,0,0,2.199027929,-410.083327705,-986.512916571)">
			<path d="M382.0761342885241,1012.5609007770174 C382.0761342885241,1012.5609007770174 905.5086092813164,1012.5609007770174 905.5086092813164,1012.5609007770174" transform="matrix(0.882485876,0,0,1,-136.675538821,0)" fill="none" stroke="#000000" stroke-width="25" stroke-linecap="round"/>
		</g>
		<g transform="matrix(2.199027929,0,0,2.199027929,-410.083327705,-986.512916571)">
			<path d="M557.7183944916633,1012.5609007770172 C557.7183944916633,1012.5609007770172 650.5940367142052,821.8551853994627 650.5940367142052,821.8551853994627" transform="matrix(1,0,0,1,104.64469493,0)" fill="none" stroke="#000000" stroke-width="25" stroke-linecap="round"/>
		</g>
		<g transform="matrix(2.199027929,0,0,2.199027929,-410.083327705,-986.512916571)">
			<path d="M218.24472686140183,854.0525354684657 C218.24472686140183,854.0525354684657 341.8575938371007,854.0525354684657 341.8575938371007,854.0525354684657" transform="matrix(1,0,0,1,123.317142414,30.150195257)" fill="none" stroke="#000000" stroke-width="25" stroke-linecap="round"/>
		</g>
		<g transform="matrix(2.199027929,0,0,2.199027929,-410.083327705,-986.512916571)">
			<path d="M218.24472686140183,854.0525354684657 C218.24472686140183,854.0525354684657 341.8575938371007,854.0525354684657 341.8575938371007,854.0525354684657" transform="matrix(0.903801435,0,0,1,205.526956421,-34.955973504)" fill="none" stroke="#000000" stroke-width="25" stroke-linecap="round"/>
		</g>
		<g transform="matrix(2.199027929,0,0,2.199027929,-410.083327705,-986.512916571)">
			<path d="M218.2447268614019,884.2164408070335 C218.2447268614019,884.2164408070335 341.85759383710075,884.2164408070335 341.85759383710075,884.2164408070335" transform="matrix(1,0,0,1,51.160933017,64.165374944)" fill="none" stroke="#000000" stroke-width="25" stroke-linecap="round"/>
		</g>
		<g transform="matrix(2.199027929,0,0,2.199027929,-410.083327705,-986.512916571)">
			<path d="M844.4103294814965,821.8551853994628 C844.4103294814965,821.8551853994628 774.6193328157906,669.0291441839449 774.6193328157906,669.0291441839449" fill="none" stroke="#000000" stroke-width="25" stroke-linecap="round"/>
		</g>
		<g transform="matrix(2.199027929,0,0,2.199027929,-410.083327705,-986.512916571)">
			<path d="M650.5940367142053,821.8551853994629 C650.5940367142053,821.8551853994629 557.7183944916635,821.855185399463 557.7183944916635,821.855185399463" fill="none" stroke="#000000" stroke-width="25" stroke-linecap="round"/>
		</g>
		<g transform="matrix(2.199027929,0,0,2.199027929,-410.083327705,-986.512916571)">
			<path d="M755.2387316445685,821.8551853994625 C755.2387316445685,821.8551853994625 844.4103294814968,821.855185399463 844.4103294814968,821.855185399463" fill="none" stroke="#000000" stroke-width="25" stroke-linecap="round"/>
		</g>
		<g transform="matrix(2.199027929,0,0,2.199027929,-410.083327705,-986.512916571)">
			<path d="M650.5940367142053,821.8551853994629 C650.5940367142053,821.8551853994629 583.9090951166473,948.3818157511138 583.9090951166473,948.3818157511138" fill="none" stroke="#000000" stroke-width="25" stroke-linecap="round"/>
		</g>
		<g transform="matrix(2.199027929,0,0,2.199027929,-410.083327705,-986.512916571)">
			<path d="M590.6605254532608,969.1879649960714 C590.6605254532608,969.1879649960714 583.9090951166473,948.3818157511138 583.9090951166473,948.3818157511138" transform="matrix(1,0,0,1,0,3)" fill="none" stroke="#000000" stroke-width="25" stroke-linecap="round"/>
		</g>
		<g transform="matrix(2.199027929,0,0,2.199027929,-410.083327705,-986.512916571)">
			<path d="M636.4016227830759,749.7963332599697 C636.4016227830759,749.7963332599697 774.6193328157906,669.0291441839449 774.6193328157906,669.0291441839449" transform="matrix(0.992245445,0,0,1.022366812,6.006828571,-14.964048938)" fill="none" stroke="#000000" stroke-width="25" stroke-linecap="round"/>
		</g>
	</g>
	<g>
		<path d="M434,184.00000000000003 C434,184.00000000000003 434,184.00000000000003 434,184.00000000000003" fill="none" stroke="#000000" stroke-width="2"/>
	</g>
	<g>
		<path d="M450,639 C450,639 450,639 450,639" fill="none" stroke="#000000" stroke-width="2"/>
	</g>
	<g>
		<path d="M889,639 C889,639 889,639 889,639" transform="matrix(1,0,0,1,-900.259498303,672.699447734)" fill="none" stroke="#000000" stroke-width="2"/>
	</g>
	<g>
		<path d="M893,181 C893,181 893,181 893,181" fill="none" stroke="#000000" stroke-width="2"/>
	</g>
	<g>
		<path d="M235.00000000000006,75 C235.00000000000006,75 235.00000000000006,75 235.00000000000006,75" fill="none" stroke="#000000" stroke-width="2"/>
	</g>
	<g>
		<path d="M986.4499999999969,75 C986.4499999999969,75 986.4499999999969,75 986.4499999999969,75" transform="matrix(1,0,0,1,542.950296094,-37.926675095)" fill="none" stroke="#000000" stroke-width="2"/>
	</g>
	<g>
		<path d="M986.4499999999969,586.4499999999969 C986.4499999999969,586.4499999999969 986.4499999999969,586.4499999999969 986.4499999999969,586.4499999999969" transform="matrix(1,0,0,1,638.765054228,634.77277264)" fill="none" stroke="#000000" stroke-width="2"/>
	</g>
	<g>
		<path d="M235.00000000000006,586.4499999999969 C235.00000000000006,586.4499999999969 235.00000000000006,586.4499999999969 235.00000000000006,586.4499999999969" fill="none" stroke="#000000" stroke-width="2"/>
	</g>
</g></g></svg>